HIERARCHY
ROOT Hips
{
	OFFSET 0.000000 0.000000 0.000000
	CHANNELS 6 Xposition Yposition Zposition Zrotation Yrotation Xrotation 
	JOINT LowerBack
	{
		OFFSET 0.000000 0.000000 0.000000
		CHANNELS 3 Zrotation Yrotation Xrotation
		JOINT Spine
		{
			OFFSET 0.028270 2.035590 -0.193380
			CHANNELS 3 Zrotation Yrotation Xrotation
			JOINT Spine1
			{
				OFFSET 0.056720 2.048850 -0.042750
				CHANNELS 3 Zrotation Yrotation Xrotation
				JOINT Neck
				{
					OFFSET 0.000000 0.000000 0.000000
					CHANNELS 3 Zrotation Yrotation Xrotation
					JOINT Neck1
					{
						OFFSET -0.054170 1.746240 0.172020
						CHANNELS 3 Zrotation Yrotation Xrotation
						JOINT Head
						{
							OFFSET 0.104070 1.761360 -0.123970
							CHANNELS 3 Zrotation Yrotation Xrotation
							End Site
							{
								OFFSET 0.000000 0.000000 0.000000
							}
						}
					}
				}
				JOINT LeftShoulder
				{
					OFFSET 0.000000 0.000000 0.000000
					CHANNELS 3 Zrotation Yrotation Xrotation
					JOINT LeftArm
					{
						OFFSET 3.362410 1.200890 -0.311210
						CHANNELS 3 Zrotation Yrotation Xrotation
						JOINT LeftForeArm
						{
							OFFSET 4.983000 -0.000000 -0.000000
							CHANNELS 3 Zrotation Yrotation Xrotation
							JOINT LeftHand
							{
								OFFSET 3.483560 -0.000000 -0.000000
								CHANNELS 3 Zrotation Yrotation Xrotation
								JOINT LeftFingerBase
								{
									OFFSET 0.000000 0.000000 0.000000
									CHANNELS 3 Zrotation Yrotation Xrotation
									JOINT LeftHandIndex1
									{
										OFFSET 0.715260 -0.000000 -0.000000
										CHANNELS 3 Zrotation Yrotation Xrotation
										End Site
										{
											OFFSET 0.000000 0.000000 0.000000
										}
									}
								}
								JOINT LThumb
								{
									OFFSET 0.000000 0.000000 0.000000
									CHANNELS 3 Zrotation Yrotation Xrotation
									End Site
									{
										OFFSET 0.000000 0.000000 0.000000
									}
								}
							}
						}
					}
				}
				JOINT RightShoulder
				{
					OFFSET 0.000000 0.000000 0.000000
					CHANNELS 3 Zrotation Yrotation Xrotation
					JOINT RightArm
					{
						OFFSET -3.136600 1.374050 -0.404650
						CHANNELS 3 Zrotation Yrotation Xrotation
						JOINT RightForeArm
						{
							OFFSET -5.241900 -0.000000 -0.000000
							CHANNELS 3 Zrotation Yrotation Xrotation
							JOINT RightHand
							{
								OFFSET -3.444170 -0.000000 -0.000000
								CHANNELS 3 Zrotation Yrotation Xrotation
								JOINT RightFingerBase
								{
									OFFSET 0.000000 0.000000 0.000000
									CHANNELS 3 Zrotation Yrotation Xrotation
									JOINT RightHandIndex1
									{
										OFFSET -0.622530 -0.000000 -0.000000
										CHANNELS 3 Zrotation Yrotation Xrotation
										End Site
										{
											OFFSET 0.000000 0.000000 0.000000
										}
									}
								}
								JOINT RThumb
								{
									OFFSET 0.000000 0.000000 0.000000
									CHANNELS 3 Zrotation Yrotation Xrotation
									End Site
									{
										OFFSET 0.000000 0.000000 0.000000
									}
								}
							}
						}
					}
				}
			}
		}
	}
}
}
MOTION
Frames: 15
Frame Time: 0.008333
8.184857 16.011484 -2.063998 -145.559327 78.315882 -122.514114 3.479937 -1.767831 4.264467 -0.656716 -1.860014 -2.210957 -8.602112 -1.797296 -0.368568 10.156779 -2.705101 -1.372267 -3.744856 -0.332269 1.488791 0.000000 0.000000 0.000000 0.634476 8.984161 1.648852 -66.193779 28.672491 26.059681 -0.972418 -64.277745 -0.002289 10.151557 6.306560 0.571996 -0.111939 -0.049358 -0.000000 0.000000 0.000000 0.000000 0.000000 0.000000 0.000000 13.941709 0.075436 -3.118783 79.258149 23.660888 27.070549 179.861260 89.276160 179.988105 -1.554835 13.051186 -0.186659 0.010323 -0.600952 -0.000000 0.000000 0.000000 0.000000 0.000000 0.000000 0.000000 
8.396370 16.131369 -2.155787 -147.046838 78.256825 -123.930620 2.847864 -1.539498 4.135328 -0.772228 -1.608685 -2.276149 -8.527137 -1.548236 -0.555251 9.815957 -2.614074 -1.033841 -3.527554 -0.323414 1.586751 0.000000 0.000000 0.000000 0.675161 9.279926 1.492398 -64.591257 30.775565 27.683357 -0.905605 -67.156233 -0.001174 9.793306 5.099825 0.446960 -0.115121 -0.044672 -0.000000 0.000000 0.000000 0.000000 0.000000 0.000000 0.000000 12.459141 0.397592 -3.377590 80.762048 25.619072 27.776747 179.806539 87.948987 179.990358 -1.048507 13.140974 -0.125816 -0.001001 -0.622826 -0.000000 0.000000 0.000000 0.000000 0.000000 0.000000 0.000000 
8.608610 16.261155 -2.254909 -148.582486 78.173881 -125.425095 2.232127 -1.297007 4.065048 -0.882680 -1.340265 -2.337280 -8.436226 -1.283790 -0.760272 9.464418 -2.507553 -0.693392 -3.316235 -0.315047 1.684062 0.000000 0.000000 0.000000 0.672863 9.563662 1.334083 -62.969312 32.637106 29.194023 -0.837600 -69.937072 -0.000321 9.498638 4.017034 0.342024 -0.118353 -0.038571 -0.000000 0.000000 0.000000 0.000000 0.000000 0.000000 0.000000 11.003567 0.728392 -3.640487 81.976991 27.368779 28.217389 179.752656 86.622835 179.991450 -0.691393 13.186804 -0.081967 -0.010638 -0.643282 -0.000000 0.000000 0.000000 0.000000 0.000000 0.000000 0.000000 
8.821698 16.399231 -2.360836 -150.186441 78.060993 -127.027148 1.629756 -1.046794 4.056190 -0.988510 -1.061556 -2.391582 -8.329986 -1.010389 -0.976690 9.110401 -2.366373 -0.355635 -3.113170 -0.307211 1.779287 0.000000 0.000000 0.000000 0.665597 9.820137 1.182592 -61.413704 34.261705 30.555441 -0.769899 -72.541234 0.000277 9.261539 3.122163 0.259786 -0.121639 -0.032085 -0.000000 0.000000 0.000000 0.000000 0.000000 0.000000 0.000000 9.597049 1.082680 -3.895850 82.876728 28.908162 28.383241 179.702350 85.313329 179.991793 -0.470479 13.216906 -0.054407 -0.018685 -0.662776 -0.000000 0.000000 0.000000 0.000000 0.000000 0.000000 0.000000 
9.036083 16.543364 -2.472825 -151.878642 77.911629 -128.758340 1.037058 -0.796023 4.103032 -1.090284 -0.780361 -2.437586 -8.209889 -0.735382 -1.197063 8.760275 -2.189006 -0.027770 -2.919511 -0.299883 1.870551 0.000000 0.000000 0.000000 0.684217 10.034992 1.042367 -59.992247 35.683189 31.737454 -0.703319 -74.935831 0.000636 9.078661 2.442403 0.199644 -0.125016 -0.026029 -0.000000 0.000000 0.000000 0.000000 0.000000 0.000000 0.000000 8.254955 1.458392 -4.133219 83.464522 30.250456 28.291962 179.657499 84.040547 179.991294 -0.362028 13.245754 -0.040542 -0.025291 -0.681429 -0.000000 0.000000 0.000000 0.000000 0.000000 0.000000 0.000000 
9.252256 16.690867 -2.589863 -153.667503 77.719042 -130.622307 0.450873 -0.552176 4.192678 -1.188341 -0.504978 -2.475407 -8.077358 -0.466633 -1.414771 8.416280 -1.983222 0.281749 -2.734900 -0.292941 1.955852 0.000000 0.000000 0.000000 0.755195 10.204742 0.915329 -58.749746 36.944083 32.725502 -0.638356 -77.120660 0.000790 8.943744 1.968648 0.158799 -0.128535 -0.020805 -0.000000 0.000000 0.000000 0.000000 0.000000 0.000000 0.000000 6.979795 1.846206 -4.346898 83.773610 31.413500 27.977073 179.619880 82.826783 179.990173 -0.335381 13.276374 -0.036868 -0.030784 -0.699106 -0.000000 0.000000 0.000000 0.000000 0.000000 0.000000 0.000000 
9.470839 16.838585 -2.710960 -155.544938 77.476118 -132.598570 -0.131185 -0.322018 4.306202 -1.283114 -0.243038 -2.506026 -7.934636 -0.211303 -1.621401 8.080735 -1.776062 0.561382 -2.559814 -0.286284 2.032460 0.000000 0.000000 0.000000 0.895560 10.334842 0.799704 -57.703830 38.086739 33.519311 -0.574880 -79.122335 0.000760 8.848373 1.660642 0.132751 -0.132212 -0.016361 -0.000000 0.000000 0.000000 0.000000 0.000000 0.000000 0.000000 5.778498 2.219167 -4.533507 83.851263 32.433752 27.497181 179.590225 81.698475 179.988656 -0.362134 13.301277 -0.039688 -0.035323 -0.715399 -0.000000 0.000000 0.000000 0.000000 0.000000 0.000000 0.000000 
9.692314 16.983187 -2.835097 -157.482367 77.177283 -134.642041 -0.708767 -0.111287 4.421501 -1.374356 -0.001143 -2.532620 -7.783262 0.024210 -1.813860 7.750963 -1.580163 0.804050 -2.392655 -0.279728 2.098980 0.000000 0.000000 0.000000 1.118288 10.438095 0.695101 -56.855210 39.146529 34.128891 -0.512676 -80.977408 0.000577 8.776776 1.458165 0.115701 -0.136014 -0.012205 -0.000000 0.000000 0.000000 0.000000 0.000000 0.000000 0.000000 4.638300 2.566689 -4.695424 83.758918 33.327856 26.890721 179.568858 80.670757 179.987008 -0.405406 13.308125 -0.044606 -0.039596 -0.729944 -0.000000 0.000000 0.000000 0.000000 0.000000 0.000000 0.000000 
9.917081 17.121450 -2.961455 -159.434539 76.818525 -136.688700 -1.279546 0.076304 4.516124 -1.461835 0.216286 -2.558189 -7.625736 0.235705 -1.987023 7.426937 -1.422303 1.001005 -2.233861 -0.273182 2.153521 0.000000 0.000000 0.000000 1.422588 10.529026 0.598477 -56.185600 40.148065 34.568349 -0.450910 -82.732656 0.000272 8.711494 1.291570 0.101652 -0.139802 -0.007574 -0.000000 0.000000 0.000000 0.000000 0.000000 0.000000 0.000000 3.559764 2.864668 -4.834183 83.550429 34.130114 26.211851 179.554941 79.759268 179.985482 -0.440892 13.283233 -0.048420 -0.043865 -0.742330 -0.000000 0.000000 0.000000 0.000000 0.000000 0.000000 0.000000 
10.145273 17.250292 -3.089570 -161.323499 76.396824 -138.641503 -1.831438 0.239464 4.568713 -1.543175 0.407055 -2.587226 -7.463467 0.420931 -2.141535 7.104047 -1.302229 1.150195 -2.081581 -0.266485 2.196015 0.000000 0.000000 0.000000 1.801797 10.624071 0.510184 -55.676926 41.102216 34.849321 -0.388892 -84.424923 -0.000130 8.626304 1.098027 0.085503 -0.143298 -0.001583 -0.000000 0.000000 0.000000 0.000000 0.000000 0.000000 0.000000 2.522768 3.116472 -4.955117 83.276560 34.842721 25.478144 179.547781 78.961575 179.984295 -0.440154 13.217507 -0.047634 -0.048861 -0.752452 -0.000000 0.000000 0.000000 0.000000 0.000000 0.000000 0.000000 
10.376777 17.367397 -3.219084 -163.103995 75.913646 -140.443338 -2.359862 0.378823 4.567127 -1.618472 0.571628 -2.620435 -7.300456 0.580582 -2.269714 6.789285 -1.257205 1.243713 -1.940037 -0.259748 2.224451 0.000000 0.000000 0.000000 2.233827 10.732563 0.425043 -55.297960 42.005149 34.981595 -0.325399 -86.093467 -0.000589 8.506769 0.821362 0.062856 -0.146139 0.006606 -0.000000 0.000000 0.000000 0.000000 0.000000 0.000000 0.000000 1.554261 3.287550 -5.055504 82.958653 35.515008 24.750892 179.544755 78.287461 179.983557 -0.409163 13.107422 -0.042841 -0.053941 -0.760138 -0.000000 0.000000 0.000000 0.000000 0.000000 0.000000 0.000000 
10.611136 17.470817 -3.350195 -164.686972 75.370221 -141.995651 -2.842997 0.498025 4.501261 -1.683928 0.712801 -2.660433 -7.138893 0.717350 -2.372655 6.482249 -1.278907 1.284414 -1.809220 -0.252956 2.239753 0.000000 0.000000 0.000000 2.694574 10.862078 0.343474 -55.035830 42.844634 34.963229 -0.259952 -87.754053 -0.001081 8.330467 0.432480 0.032006 -0.147845 0.017601 -0.000000 0.000000 0.000000 0.000000 0.000000 0.000000 0.000000 0.646293 3.388543 -5.137409 82.613493 36.138688 24.033561 179.544500 77.722937 179.983297 -0.344539 12.960455 -0.034045 -0.059225 -0.765710 -0.000000 0.000000 0.000000 0.000000 0.000000 0.000000 0.000000 
10.847745 17.559338 -3.483205 -166.021221 74.772432 -143.246651 -3.265880 0.602150 4.370382 -1.737680 0.835290 -2.707043 -6.982311 0.836008 -2.447895 6.189465 -1.372923 1.274453 -1.692121 -0.246268 2.242351 0.000000 0.000000 0.000000 3.156151 11.011971 0.263805 -54.883297 43.600924 34.784723 -0.192296 -89.413272 -0.001578 8.087262 -0.076439 -0.006446 -0.147949 0.031683 -0.000000 0.000000 0.000000 0.000000 0.000000 0.000000 0.000000 -0.184216 3.415516 -5.198204 82.238818 36.719820 23.346868 179.545100 77.260649 179.983429 -0.264306 12.791435 -0.023441 -0.064047 -0.769539 -0.000000 0.000000 0.000000 0.000000 0.000000 0.000000 0.000000 
11.085672 17.632332 -3.618316 -167.094979 74.130978 -144.195822 -3.620765 0.697197 4.186195 -1.779319 0.945160 -2.757698 -6.833759 0.942783 -2.493895 5.918504 -1.537641 1.219145 -1.591564 -0.239877 2.233256 0.000000 0.000000 0.000000 3.597092 11.178173 0.186157 -54.847806 44.244826 34.432433 179.877034 -88.940126 179.997927 7.779387 -0.689289 -0.049704 -0.146118 0.048743 -0.000000 0.000000 0.000000 0.000000 0.000000 0.000000 0.000000 -0.919938 3.371168 -5.235600 81.825775 37.254101 22.700910 179.545006 76.887905 179.983788 -0.190750 12.620337 -0.014029 -0.067720 -0.772146 -0.000000 0.000000 0.000000 0.000000 0.000000 0.000000 0.000000 
11.324033 17.689474 -3.756214 -167.857386 73.455582 -144.804409 -3.886360 0.791725 3.956471 -1.805625 1.050201 -2.811449 -6.696002 1.045528 -2.512662 5.672934 -1.753886 1.128175 -1.508394 -0.233942 2.214815 0.000000 0.000000 0.000000 3.995355 11.353909 0.111378 -54.948560 44.757329 33.884010 179.946939 -87.326257 179.997427 7.410255 -1.365844 -0.093173 -0.142138 0.068192 -0.000000 0.000000 0.000000 0.000000 0.000000 0.000000 0.000000 -1.559493 3.275289 -5.249036 81.364786 37.708719 22.087774 179.543788 76.587755 179.984168 -0.144748 12.469066 -0.008306 -0.069751 -0.774123 -0.000000 0.000000 0.000000 0.000000 0.000000 0.000000 0.000000 
